<?xml version="1.0" encoding="UTF-8" standalone="no"?>
<svg width="89" height="89" viewBox="0 0 89 89" fill="none" xmlns="http://www.w3.org/2000/svg">
<path fill-rule="evenodd" clip-rule="evenodd" d="M18.1696 12.4118C18.0084 11.5187 18.0436 10.6012 18.2728 9.72306C18.502 8.84492 18.9197 8.02722 19.4968 7.32682C20.074 6.62642 20.7967 6.06012 21.6149 5.66728C22.433 5.27444 23.3269 5.06449 24.2343 5.05202L61.1685 4.55849C63.9199 4.52234 66.6062 5.39502 68.8111 7.04118C71.0159 8.68734 72.6159 11.015 73.3631 13.6632C74.1102 16.3113 73.9627 19.1321 72.9435 21.6879C71.9242 24.2437 70.0901 26.3918 67.7256 27.799C65.3611 29.2062 62.5984 29.7939 59.8659 29.471C57.1333 29.1481 54.5837 27.9327 52.6123 26.0131C50.6409 24.0935 49.358 21.5771 48.9626 18.8541C48.5671 16.1311 49.0811 13.3537 50.4249 10.9526L36.8167 11.1344L43.1133 33.9274L51.7497 65.1898L74.1008 64.8911C74.2883 64.8886 74.4666 64.9018 74.6451 64.9307C77.045 64.6743 79.4622 65.2188 81.5203 66.4795C83.5784 67.7401 85.1617 69.6461 86.0236 71.9005C86.8855 74.1548 86.9775 76.631 86.2853 78.9431C85.5931 81.2552 84.1556 83.2735 82.1968 84.6834C80.2379 86.0933 77.8677 86.8158 75.4555 86.7381C73.0432 86.6605 70.7244 85.7872 68.8602 84.2542C66.9961 82.7213 65.6913 80.6148 65.1492 78.263C64.6071 75.9111 64.8582 73.446 65.8632 71.2517L39.3343 71.6062C37.8549 71.6262 36.4165 71.1207 35.2748 70.1797C34.1331 69.2386 33.3623 67.9231 33.0995 66.4672L25.6345 39.4395L18.1696 12.4118ZM45.4159 65.2744L36.7795 34.012L30.4829 11.2191L24.3178 11.3015L39.2508 65.3568L45.4159 65.2744Z" fill="black"/>
<path d="M43.1133 33.9274L44.8337 40.1549L58.2642 39.9755C56.9204 42.3766 56.4064 45.154 56.8018 47.877C57.1973 50.5999 58.4802 53.1163 60.4516 55.0359C62.423 56.9555 64.9726 58.171 67.7052 58.4939C70.4377 58.8168 73.2004 58.2291 75.5649 56.8218C77.9294 55.4146 79.7635 53.2665 80.7828 50.7107C81.8021 48.1549 81.9495 45.3342 81.2024 42.686C80.4552 40.0379 78.8552 37.7102 76.6504 36.064C74.4455 34.4179 71.7592 33.5452 69.0078 33.5814L43.1133 33.9274Z" fill="black"/>
<path d="M30.6145 34.0944L32.3348 40.322L38.4999 40.2396L36.7795 34.012L30.6145 34.0944Z" fill="black"/>
<path d="M23.3593 74.1716C21.8799 74.1915 20.4414 73.686 19.2998 72.745C18.1581 71.804 17.3873 70.4885 17.1244 69.0326L12.323 51.6485L17.9907 50.8187L23.2758 67.9222L29.4408 67.8398L31.5829 73.5904L23.3593 74.1716Z" fill="black"/>
<path d="M2.19461 14.9772C2.03337 14.0841 2.06857 13.1666 2.29776 12.2884C2.52696 11.4103 2.94465 10.5926 3.5218 9.8922C4.09895 9.1918 4.82171 8.6255 5.63984 8.23266C6.45797 7.83982 7.35184 7.62987 8.25931 7.6174L13.6316 7.81234L15.5812 13.3269L8.34282 13.8668L12.784 30.9161L6.88034 31.9425L2.19461 14.9772Z" fill="black"/>
<path d="M16.7566 39.4446C16.9133 40.0614 16.9468 40.6376 16.8573 41.1734C16.7642 41.707 16.5658 42.1605 16.262 42.5337C15.9547 42.9049 15.5557 43.1572 15.0649 43.2907L14.6074 41.49C14.8111 41.4265 14.9757 41.3128 15.1012 41.1491C15.2232 40.9832 15.3003 40.7848 15.3325 40.5539C15.3647 40.3229 15.3475 40.0767 15.2811 39.8151C15.2118 39.5425 15.1024 39.3138 14.9529 39.1291C14.8033 38.9443 14.6282 38.8144 14.4274 38.7394C14.2266 38.6643 14.0147 38.6552 13.7917 38.7118C13.5659 38.7692 13.3823 38.8832 13.2411 39.054C13.0963 39.2226 13.0041 39.4366 12.9645 39.6958C12.9241 39.9523 12.9445 40.2402 13.0256 40.5596L13.2261 41.3485L11.9127 41.6822L11.7123 40.8933C11.6437 40.6235 11.5364 40.3972 11.3903 40.2145C11.2435 40.029 11.0728 39.8994 10.8782 39.8258C10.6809 39.7528 10.4707 39.7446 10.2477 39.8013C10.0357 39.8552 9.86275 39.9533 9.72894 40.0958C9.59167 40.2362 9.50069 40.4088 9.456 40.6136C9.41061 40.8157 9.41834 41.0365 9.47921 41.276C9.54077 41.5183 9.64114 41.7288 9.78031 41.9074C9.91674 42.0867 10.0802 42.2166 10.2707 42.2972C10.4612 42.3778 10.6648 42.3949 10.8817 42.3486L11.3172 44.0626C10.8277 44.1782 10.3629 44.1483 9.92258 43.9729C9.48231 43.7975 9.09948 43.5078 8.77409 43.1039C8.44525 42.698 8.20738 42.2059 8.06047 41.6277C7.91216 41.0439 7.8884 40.5062 7.98918 40.0146C8.08996 39.5229 8.28992 39.1101 8.58906 38.7762C8.88475 38.4402 9.25597 38.2169 9.70272 38.1063C10.1756 37.9832 10.6082 38.0302 11.0004 38.2471C11.3919 38.4612 11.6904 38.7943 11.8961 39.2462L11.9622 39.2294C11.884 38.5868 11.9798 38.0583 12.2497 37.6439C12.5161 37.2274 12.9126 36.9537 13.4392 36.8228C13.9204 36.6976 14.3839 36.7279 14.8297 36.9136C15.2748 37.0966 15.667 37.4058 16.0063 37.8414C16.3456 38.2769 16.5957 38.8113 16.7566 39.4446Z" fill="black"/>
</svg>
